PathFileType	4	(X/Y/Z)	C:\Users\Basilio\Documents\Thesis Gigler\squatting_fais\c3dfiles\039\SLS_pre_front2\markers_experimental.trc
DataRate	CameraRate	NumFrames	NumMarkers	Units	OrigDataRate	OrigDataStartFrame	OrigNumFrames
200.000000	200.000000	4	62	mm	200.000000	1313	2102
Frame#	Time	FHD			LBHD			RBHD			C7			T10			CLAV			LSHO			LUUPA			LMUPA			LDUPA			LLEP			LMEP			LRAD			LUL			LRFIN			RSHO			RUPA1			RMUPA			RDUPA			RLEP			RMEP			RRAD			RUL			RUFIN			LASI			RASI			USACR			LSACR			RSACR			LTHI1			LTHI2			LTHI3			LTHI4			LLFC			LMFC			LTIB1			LTIB2			LTIB3			LTIB4			LLMAL			LMMAL			LHEE			LMT1			LMT2			LMT5			RTHI			RTHI2			RTHI3			RTHI4			RLFC			RMFC			RTIB1			RTIB2			RTIB3			RTIB4			RLMAL			RMMAL			RHEE			RMT1			RMT2			RMT5			*61			
		X1	Y1	Z1	X2	Y2	Z2	X3	Y3	Z3	X4	Y4	Z4	X5	Y5	Z5	X6	Y6	Z6	X7	Y7	Z7	X8	Y8	Z8	X9	Y9	Z9	X10	Y10	Z10	X11	Y11	Z11	X12	Y12	Z12	X13	Y13	Z13	X14	Y14	Z14	X15	Y15	Z15	X16	Y16	Z16	X17	Y17	Z17	X18	Y18	Z18	X19	Y19	Z19	X20	Y20	Z20	X21	Y21	Z21	X22	Y22	Z22	X23	Y23	Z23	X24	Y24	Z24	X25	Y25	Z25	X26	Y26	Z26	X27	Y27	Z27	X28	Y28	Z28	X29	Y29	Z29	X30	Y30	Z30	X31	Y31	Z31	X32	Y32	Z32	X33	Y33	Z33	X34	Y34	Z34	X35	Y35	Z35	X36	Y36	Z36	X37	Y37	Z37	X38	Y38	Z38	X39	Y39	Z39	X40	Y40	Z40	X41	Y41	Z41	X42	Y42	Z42	X43	Y43	Z43	X44	Y44	Z44	X45	Y45	Z45	X46	Y46	Z46	X47	Y47	Z47	X48	Y48	Z48	X49	Y49	Z49	X50	Y50	Z50	X51	Y51	Z51	X52	Y52	Z52	X53	Y53	Z53	X54	Y54	Z54	X55	Y55	Z55	X56	Y56	Z56	X57	Y57	Z57	X58	Y58	Z58	X59	Y59	Z59	X60	Y60	Z60	X61	Y61	Z61	X62	Y62	Z62	

1314	6.565	-344.2255554199219	1694.85107421875	-631.2306518554689	-501.5190734863282	1660.030151367188	-749.6522216796876	-472.9583435058595	1661.921997070313	-610.7914428710939	-536.5809326171876	1495.948486328125	-698.8306274414064	-590.5430908203126	1202.062133789063	-730.9768676757814	nan	nan	nan	-463.6909790039064	1515.714599609375	-853.2658691406252	-301.2728881835938	1499.025024414063	-966.2541503906252	-279.5015869140626	1529.980224609375	-933.248474121094	-233.0028076171876	1514.92431640625	-966.640319824219	-166.7019653320313	1529.200927734375	-961.5882568359377	-155.0230560302735	1457.398559570313	-934.117126464844	107.4292831420899	1580.59619140625	-868.8499755859377	107.2301788330078	1593.407836914063	-944.245056152344	184.8474273681641	1622.206176757813	-858.747253417969	-425.2531127929689	1489.216918945313	-537.7445678710939	-263.4419555664063	1428.338989257813	-444.6331787109376	-238.4329376220704	1464.478393554688	-469.4756164550782	-193.9054260253907	1430.061889648438	-447.3271789550782	-132.0775451660157	1448.240112304688	-458.9033508300782	-123.4439392089844	1383.506958007813	-500.8179931640626	149.045654296875	1515.835693359375	-549.0234375000001	153.4037322998047	1504.670288085938	-473.5957641601564	233.2401580810547	1554.96630859375	-545.5007324218751	-444.0057067871095	1035.521362304688	-859.854675292969	-441.1574707031251	1013.312133789063	-634.6311035156251	-625.2255249023439	1060.064331054688	-739.2607421875001	-628.9140014648439	1029.94921875	-769.6665649414065	-629.4542236328126	1025.839111328125	-711.3652954101564	-320.2192993164063	838.323669433594	-937.3453369140627	-237.4996032714844	821.871032714844	-928.6947021484377	-214.3772277832032	859.898864746094	-912.095642089844	-211.152328491211	766.2858886718751	-920.3682250976565	-110.7018280029297	698.2994384765626	-916.2327270507815	-79.78531646728517	693.8602905273439	-801.0073852539065	41.41541290283204	647.8973388671876	-888.105895996094	33.77071762084962	575.3932495117189	-936.2769775390627	64.41986083984376	603.1578979492189	-917.2010498046877	124.9120712280274	550.9636840820314	-880.4297485351565	218.4418640136719	404.1678771972657	-921.3281860351565	229.7650909423829	406.1965332031251	-834.8599243164065	211.5206451416016	313.3662414550782	-887.1687011718752	378.6802673339844	474.3371582031251	-853.348571777344	373.1440734863282	477.2409667968751	-894.703308105469	356.4379577636719	437.0530090332032	-952.2354125976565	-376.2649841308594	752.6141357421876	-579.5832519531251	-315.5828552246094	724.1252441406251	-577.2171630859376	-288.0642089843751	742.1980590820314	-581.5267944335939	-300.3970031738282	641.0240478515626	-591.8487548828126	-274.2304992675782	516.6541137695314	-624.5504760742189	-239.0009307861329	525.2348022460939	-735.5498046875001	-264.3664550781251	314.0712280273438	-672.2210083007814	-358.2351074218751	262.6382141113282	-673.8002929687501	-314.2864685058594	247.0470886230469	-677.5586547851564	-303.2899475097657	201.3974761962891	-715.6072998046876	-383.5627441406251	118.5592880249024	-708.0571289062501	-350.7968750000001	143.9700622558594	-788.8034667968752	-453.8827514648439	105.9368133544922	-767.1591796875001	-230.3046264648438	61.50842285156251	-775.9270629882815	-234.0744628906251	60.53099060058595	-730.0102539062501	-290.7373352050782	39.6472511291504	-681.7391357421876	nan	nan	nan	
1315	6.57	-344.9958801269532	1696.181030273438	-631.4686889648439	-502.0920715332032	1661.857543945313	-749.7799682617189	-473.3736267089845	1663.469848632813	-610.7482299804689	-537.1577148437501	1497.689331054688	-698.6499023437501	-590.1337280273439	1203.754272460938	-730.4890136718751	nan	nan	nan	-464.3454589843751	1517.523803710938	-853.287048339844	-301.9187011718751	1500.7265625	-966.1624755859377	-280.1966247558594	1531.580444335938	-933.2781982421877	-233.7103424072266	1516.538208007813	-966.656188964844	-167.3519287109375	1530.80859375	-961.6091308593752	-155.6711578369141	1458.815673828125	-934.0981445312502	106.7304458618164	1582.651977539063	-869.1781005859377	106.5094757080078	1595.173461914063	-944.4537353515627	184.251205444336	1623.46484375	-858.5198974609377	-425.8536376953126	1491.169067382813	-537.6933593750001	-263.5243530273438	1430.5234375	-444.4467773437501	-238.6010437011719	1466.469482421875	-469.268524169922	-194.3111877441407	1431.94921875	-447.2310791015626	-132.5336303710938	1450.200073242188	-458.7177734375001	-124.1062164306641	1384.9365234375	-501.1593627929689	148.961669921875	1517.173828125	-549.0787963867189	152.8826141357422	1506.386352539063	-473.3798828125001	232.6941070556641	1556.403564453125	-545.2814941406251	-443.7703247070314	1037.298950195313	-859.8410644531252	-440.4738769531251	1014.863098144531	-634.6318969726564	-624.8888549804689	1061.452514648438	-738.9616088867189	-628.6898803710939	1031.385498046875	-769.4428710937502	-629.6088256835939	1027.391723632813	-711.3244018554689	-320.2595214843751	839.8127441406252	-937.3558349609377	-237.460189819336	823.3464965820315	-928.7432250976565	-214.5573120117188	861.5083618164065	-912.2021484375002	-211.0933837890626	767.8031616210939	-920.4696044921877	-110.6434402465821	699.5132446289064	-916.2882080078127	-79.92262268066408	694.8709716796876	-801.0630493164065	41.29823303222657	648.9514160156251	-888.3835449218752	33.66796112060548	576.5549926757814	-936.5999755859377	64.41115570068361	604.3082275390626	-917.5681152343752	124.7680587768555	551.6432495117189	-880.7144775390627	218.2349090576172	405.4122009277345	-921.6784667968752	229.5056610107422	406.9555969238282	-835.1739501953127	211.1469116210938	314.5908508300782	-887.8215332031252	378.4423828125001	475.2278747558595	-853.7085571289065	373.1679992675782	478.4715576171876	-894.943786621094	356.1507263183594	437.9867248535157	-952.618591308594	-376.4893188476563	753.7056274414064	-579.8543090820314	-315.3152465820313	725.2919311523439	-577.3898315429689	-288.3987731933594	742.8824462890626	-581.8835449218751	-301.0195312500001	641.7682495117189	-592.2362670898439	-275.3698120117188	516.5876464843751	-624.7444458007814	-240.2845764160157	525.7864990234376	-736.0090332031251	-264.9489440917969	314.5761718750001	-672.5109252929689	-358.6476440429688	262.8988647460938	-673.9627075195314	-314.6440124511719	247.1866912841797	-677.8252563476564	-303.7052612304688	201.7354431152344	-715.6506958007814	-383.6063232421876	118.5928115844727	-708.0308837890626	-350.9699096679688	143.7549743652344	-788.8955688476565	-453.8703002929689	105.9496994018555	-767.1122436523439	-230.2461242675782	61.53467941284181	-775.916198730469	-234.0926818847657	60.61979293823244	-730.0596313476564	-290.6907653808594	39.59079742431641	-681.7487792968751	nan	nan	nan	
1316	6.575	-345.2624816894532	1698.285400390625	-631.4198608398439	-502.6633605957032	1663.623168945313	-749.7479858398439	-474.0219726562501	1665.753784179688	-610.7938842773439	-537.6555786132814	1499.431518554688	-698.7102661132814	-590.2252197265626	1205.098876953125	-730.2359619140626	nan	nan	nan	-464.9003295898439	1519.144653320313	-852.9727783203127	-302.4553222656251	1502.340454101563	-966.1394653320315	-280.8408508300782	1533.1240234375	-933.264099121094	-234.3874511718751	1518.373291015625	-966.6731567382815	-167.9532470703125	1532.427490234375	-961.731384277344	-156.4167022705078	1460.646362304688	-934.0782470703127	106.0094451904297	1584.062866210938	-869.3359985351565	105.9177932739258	1596.985229492188	-944.7031250000002	183.7038726806641	1625.323486328125	-858.8819580078127	-426.3362121582032	1492.795166015625	-537.6029663085939	-264.0328063964844	1431.8974609375	-444.2640686035157	-239.1465148925782	1467.877197265625	-469.3897094726564	-194.9204559326172	1433.883056640625	-447.191864013672	-132.8526916503907	1452.012573242188	-458.7027282714845	-124.3702468872071	1386.64013671875	-500.9470520019532	148.1649932861328	1519.273681640625	-548.9116821289064	152.3194427490235	1508.015380859375	-473.2662963867189	232.4902038574219	1558.145263671875	-545.4671630859376	-443.6802673339845	1038.817993164063	-859.6719360351565	-440.0745849609376	1016.134094238281	-634.6394653320314	-624.6890869140626	1062.908569335938	-738.6136474609376	-628.4492797851564	1032.911743164063	-769.190612792969	-629.0263061523439	1028.674682617188	-710.9538574218751	-320.0133056640626	841.4226074218752	-937.5008544921877	-237.3644409179688	824.6660156250002	-928.840270996094	-214.4612731933594	863.0130615234377	-912.2294921875002	-211.0040588378907	769.2386474609377	-920.6072998046877	-110.4784240722657	700.7855224609376	-916.390075683594	-79.89865875244142	696.1506347656251	-801.2371826171877	41.30601119995118	650.2019042968751	-888.653259277344	33.62450027465821	577.7194824218751	-936.9358520507815	64.14241790771486	605.4274902343751	-917.7657470703127	124.6658554077149	553.1536254882814	-880.888366699219	218.021469116211	406.3375854492189	-922.0869140625002	229.4494781494141	408.0876464843751	-835.7647705078127	210.9110717773438	315.5049438476563	-888.2351074218752	378.3101806640626	476.2392883300782	-853.8838500976565	372.7498779296876	478.921112060547	-895.3383789062502	356.0876159667969	438.9433593750001	-953.0474853515627	-376.7359313964844	754.6401977539064	-580.0859375000001	-315.8308105468751	725.9594116210939	-577.7554321289064	-288.6707763671876	743.7307128906251	-582.1100463867189	-301.7042236328126	642.5916748046876	-592.5349121093751	-276.4682922363282	517.4412231445314	-625.3461303710939	-241.3137969970704	526.5654907226564	-736.3880615234376	-265.5493469238282	314.9720458984376	-672.7963867187501	-359.0898437500001	263.0276184082032	-674.1235961914064	-314.9920349121094	247.4685516357422	-677.9929199218751	-303.9836425781251	201.8685150146485	-715.6106567382814	-383.6612243652344	118.6488265991211	-707.9710693359376	-351.1319885253907	143.8158111572266	-788.9079589843752	-453.8457641601564	105.936637878418	-767.0632324218751	-230.3132934570313	61.58872985839845	-775.9365234375002	-234.0851440429688	60.61543655395509	-729.9978027343751	-290.6871337890626	39.62348175048829	-681.7832641601564	nan	nan	nan	
1317	6.58	-345.6996765136719	1699.733276367188	-631.2820434570314	-503.3274841308595	1665.361572265625	-749.7453613281251	-474.5696105957032	1667.24853515625	-610.8538818359376	-538.3228759765626	1501.06689453125	-698.5753784179689	-590.2402954101564	1206.539794921875	-729.9887084960939	nan	nan	nan	-465.6540832519532	1520.70751953125	-852.8271484375002	-303.1840820312501	1503.776611328125	-966.2115478515627	-281.6452636718751	1534.9189453125	-933.3259887695315	-235.0943298339844	1519.81884765625	-966.7795410156252	-168.6341552734375	1534.041137695313	-961.8781738281252	-156.9332275390625	1462.25341796875	-934.1577758789065	105.354850769043	1585.982299804688	-869.4975585937502	105.1264190673828	1598.76318359375	-944.8858032226565	183.2090301513672	1626.98486328125	-859.4109497070315	-426.8342590332032	1494.618041992188	-537.5451049804689	-264.9049377441407	1433.832153320313	-444.5006103515626	-239.377914428711	1470.09716796875	-469.2179260253907	-195.2787322998047	1435.391235351563	-446.9527282714845	-133.3597717285157	1453.58837890625	-458.6010742187501	-124.8933258056641	1388.7490234375	-500.8241577148439	147.6097412109375	1520.763793945313	-548.9406738281251	152.0163116455078	1509.706420898438	-473.3987731933595	231.9308319091797	1559.52880859375	-545.3547973632814	-443.3707275390626	1040.447387695313	-859.545837402344	-439.3044738769532	1017.534484863281	-634.5521240234376	-624.2830810546876	1064.36328125	-738.3969116210939	-628.0984497070314	1034.355102539063	-768.9187622070315	-628.4914550781251	1030.178344726563	-710.4921875000001	-319.9328308105469	842.9542236328127	-937.4472656250002	-237.1427612304688	826.1904907226565	-928.8581542968752	-213.8563842773438	864.0723876953127	-912.2379150390627	-211.044418334961	770.6107177734377	-920.712097167969	-110.7593307495117	702.0568237304689	-916.6081542968752	-79.80718994140626	697.1390991210939	-801.459655761719	41.23477172851563	651.3209838867189	-888.7907714843752	33.51647186279298	578.8897094726564	-937.1329345703127	64.29441833496095	606.6237182617189	-918.128356933594	124.4549026489258	553.9312744140626	-881.4274902343752	217.7970123291016	407.2436523437501	-922.4716796875002	229.1316680908204	409.014617919922	-836.1542968750002	210.4631042480469	316.4742736816407	-888.7320556640627	377.5146484375001	476.6481933593751	-854.691589355469	372.5264892578126	479.9544372558595	-895.810241699219	356.0043640136719	439.9159240722657	-953.4329223632815	-377.0057983398438	755.8122558593751	-580.1435546875001	-316.2517395019532	726.8475952148439	-578.1906738281251	-288.9332275390626	744.4292602539064	-582.4273681640626	-302.4671020507813	643.5160522460939	-592.9494628906251	-277.2437744140626	517.9988403320314	-625.7164916992189	-242.2617340087891	526.6575317382814	-736.8773193359376	-266.1798095703126	315.2582397460938	-672.9852905273439	-359.5282897949219	263.1325378417969	-674.2115478515626	-315.4183959960938	247.6963500976563	-678.1093139648439	-304.2645568847657	202.0541076660157	-715.5681152343751	-383.6637573242188	118.6854324340821	-707.9044799804689	-351.1829833984376	143.8303375244141	-788.8989257812502	-453.8523864746095	105.9362182617188	-767.0640258789064	-230.248764038086	61.61965179443361	-775.929870605469	-234.1049957275391	60.75470352172853	-730.0425415039064	-290.6580200195313	39.64374160766602	-681.7725219726564	nan	nan	nan	
